<svg xmlns="http://www.w3.org/2000/svg" xml:space="preserve" style="enable-background:new 0 0 102 95.9" viewBox="0 0 102 95.9"><linearGradient id="a" x1="16.92" x2="113.82" y1="339.785" y2="339.785" gradientTransform="translate(-14.37 -291.84)" gradientUnits="userSpaceOnUse"><stop offset="0" style="stop-color:#f29306"/><stop offset="1" style="stop-color:#e85710"/></linearGradient><path d="M82.2 32c0-4.8 3.9-8.6 8.6-8.6 4.8 0 8.6 3.9 8.6 8.6 0 4.8-3.9 8.6-8.6 8.6s-8.6-3.8-8.6-8.6m16.4 33.1c0 4.7-3.8 8.5-8.5 8.5-4.8 0-8.7-3.8-8.7-8.5.1-4.8 4-8.6 8.8-8.5 4.6.1 8.3 3.8 8.4 8.5M87.1 48.2c0 4.8-3.9 8.7-8.7 8.6-4.7 0-8.4-3.9-8.4-8.6 0-4.8 3.8-8.6 8.4-8.6 4.9.1 8.7 3.8 8.7 8.6M70.5 19.8c4.7 0 8.6 3.9 8.6 8.7 0 4.7-3.9 8.5-8.6 8.5-4.9 0-8.7-3.8-8.7-8.5-.1-4.8 3.8-8.7 8.7-8.7-.1 0 0 0 0 0m8.3 47.7c0 4.8-3.9 8.6-8.7 8.6-4.8 0-8.6-3.9-8.6-8.7 0-4.8 3.9-8.6 8.6-8.6h.1c4.7.1 8.6 4 8.6 8.7M59.1 9c0-4.8 3.9-8.7 8.7-8.7s8.7 3.9 8.7 8.7c0 4.7-3.9 8.6-8.7 8.6-4.8 0-8.7-4-8.7-8.6m16.3 78.3c0 4.7-3.8 8.6-8.5 8.6-4.8 0-8.7-3.9-8.7-8.6 0-4.7 3.9-8.6 8.7-8.6 4.7 0 8.5 3.9 8.5 8.6M42.1 20.8c0-4.8 3.9-8.6 8.6-8.6s8.6 3.9 8.6 8.6c0 4.7-3.8 8.5-8.6 8.6-4.7 0-8.6-3.8-8.6-8.5v-.1M59 75c0 4.7-3.8 8.6-8.4 8.6-4.8.1-8.7-3.7-8.8-8.5-.1-4.8 3.7-8.7 8.5-8.8h.3c4.6 0 8.4 3.9 8.4 8.7M26.2 8.7C26.2 4 30 0 34.7 0c4.8 0 8.7 3.9 8.7 8.7 0 4.7-3.9 8.6-8.7 8.6-4.8-.1-8.6-3.9-8.5-8.6M42.9 87c.1 4.8-3.7 8.7-8.5 8.8-4.8.1-8.7-3.7-8.8-8.5V87c0-4.6 3.9-8.6 8.6-8.6s8.7 4 8.7 8.6M31.5 75.8c-4.7 0-8.6-4-8.6-8.7s3.8-8.6 8.6-8.6 8.7 3.9 8.7 8.6c0 4.8-3.9 8.7-8.7 8.7m-8.8-47.3c0-4.8 3.9-8.7 8.6-8.7 4.8 0 8.6 3.9 8.6 8.6v.1c0 4.7-3.8 8.5-8.6 8.5h-.1c-4.6 0-8.5-3.8-8.5-8.5m9.7 19.7c0 4.7-3.9 8.6-8.6 8.6-4.8 0-8.7-3.8-8.7-8.6s3.8-8.6 8.7-8.6c4.7.1 8.6 3.9 8.6 8.6M3 31.8c0-4.8 3.9-8.6 8.6-8.6s8.6 3.9 8.6 8.6-3.9 8.6-8.6 8.6h-.1c-4.7.1-8.5-3.9-8.5-8.6m16.7 31.9c0 4.8-3.9 8.6-8.6 8.6H11c-4.6 0-8.5-3.8-8.5-8.6 0-4.7 3.8-8.5 8.5-8.5 4.9 0 8.7 3.7 8.7 8.5" style="fill:url(#a)"/></svg>